<mxfile host="app.diagrams.net" modified="2021-03-30T02:25:10.147Z" agent="5.0 (Windows NT 10.0; Win64; x64) AppleWebKit/537.36 (KHTML, like Gecko) Chrome/89.0.4389.90 Safari/537.36" etag="KvMH32zsGHbKXj0VSXB2" version="14.4.6" type="github">
  <diagram id="6O0-OaW8vOKU0QB__s8W" name="Page-1">
    <mxGraphModel dx="-232" dy="706" grid="1" gridSize="10" guides="1" tooltips="1" connect="1" arrows="1" fold="1" page="1" pageScale="1" pageWidth="827" pageHeight="1169" math="0" shadow="0">
      <root>
        <mxCell id="0" />
        <mxCell id="1" parent="0" />
        <mxCell id="f1_OQCMBHzuGKUmwr1GN-1" value="是" style="edgeStyle=orthogonalEdgeStyle;rounded=0;orthogonalLoop=1;jettySize=auto;html=1;" edge="1" parent="1" source="f1_OQCMBHzuGKUmwr1GN-3">
          <mxGeometry relative="1" as="geometry">
            <mxPoint x="2030.034482758621" y="745" as="targetPoint" />
          </mxGeometry>
        </mxCell>
        <mxCell id="f1_OQCMBHzuGKUmwr1GN-2" value="否" style="edgeStyle=orthogonalEdgeStyle;rounded=0;orthogonalLoop=1;jettySize=auto;html=1;entryX=0;entryY=0.5;entryDx=0;entryDy=0;" edge="1" parent="1" source="f1_OQCMBHzuGKUmwr1GN-3" target="f1_OQCMBHzuGKUmwr1GN-3">
          <mxGeometry relative="1" as="geometry">
            <mxPoint x="1930" y="695" as="targetPoint" />
            <Array as="points">
              <mxPoint x="2030" y="630" />
              <mxPoint x="1920" y="630" />
              <mxPoint x="1920" y="685" />
            </Array>
          </mxGeometry>
        </mxCell>
        <mxCell id="f1_OQCMBHzuGKUmwr1GN-3" value="当前队列中是否&lt;br&gt;存在数据帧" style="rhombus;whiteSpace=wrap;html=1;" vertex="1" parent="1">
          <mxGeometry x="1959.97" y="650" width="140" height="70" as="geometry" />
        </mxCell>
        <mxCell id="f1_OQCMBHzuGKUmwr1GN-4" value="是" style="edgeStyle=orthogonalEdgeStyle;rounded=0;orthogonalLoop=1;jettySize=auto;html=1;exitX=0.5;exitY=1;exitDx=0;exitDy=0;" edge="1" parent="1" source="f1_OQCMBHzuGKUmwr1GN-14">
          <mxGeometry relative="1" as="geometry">
            <mxPoint x="2030.034482758621" y="884.9699999999998" as="sourcePoint" />
            <mxPoint x="2030.034482758621" y="914.9700000000003" as="targetPoint" />
          </mxGeometry>
        </mxCell>
        <mxCell id="f1_OQCMBHzuGKUmwr1GN-5" value="否" style="edgeStyle=orthogonalEdgeStyle;rounded=0;orthogonalLoop=1;jettySize=auto;html=1;" edge="1" parent="1" target="f1_OQCMBHzuGKUmwr1GN-6">
          <mxGeometry relative="1" as="geometry">
            <mxPoint x="2030.034482758621" y="985" as="sourcePoint" />
          </mxGeometry>
        </mxCell>
        <mxCell id="f1_OQCMBHzuGKUmwr1GN-6" value="发送数据帧" style="rounded=0;whiteSpace=wrap;html=1;" vertex="1" parent="1">
          <mxGeometry x="1969.97" y="1005" width="120" height="60" as="geometry" />
        </mxCell>
        <mxCell id="f1_OQCMBHzuGKUmwr1GN-7" value="" style="edgeStyle=orthogonalEdgeStyle;rounded=0;orthogonalLoop=1;jettySize=auto;html=1;exitX=0.5;exitY=1;exitDx=0;exitDy=0;" edge="1" parent="1" source="f1_OQCMBHzuGKUmwr1GN-12">
          <mxGeometry relative="1" as="geometry">
            <mxPoint x="2220.0044827586207" y="1065" as="sourcePoint" />
            <mxPoint x="2030" y="825" as="targetPoint" />
          </mxGeometry>
        </mxCell>
        <mxCell id="f1_OQCMBHzuGKUmwr1GN-8" value="更新共享队列信息" style="rounded=0;whiteSpace=wrap;html=1;" vertex="1" parent="1">
          <mxGeometry x="2139.97" y="915" width="120" height="60" as="geometry" />
        </mxCell>
        <mxCell id="f1_OQCMBHzuGKUmwr1GN-9" value="" style="edgeStyle=orthogonalEdgeStyle;rounded=0;orthogonalLoop=1;jettySize=auto;html=1;entryX=1;entryY=0.5;entryDx=0;entryDy=0;exitX=0.5;exitY=0;exitDx=0;exitDy=0;" edge="1" parent="1" source="f1_OQCMBHzuGKUmwr1GN-8" target="f1_OQCMBHzuGKUmwr1GN-3">
          <mxGeometry relative="1" as="geometry">
            <mxPoint x="2199.97" y="665" as="targetPoint" />
            <mxPoint x="2139.9699999999993" y="775" as="sourcePoint" />
          </mxGeometry>
        </mxCell>
        <mxCell id="f1_OQCMBHzuGKUmwr1GN-10" value="" style="edgeStyle=orthogonalEdgeStyle;rounded=0;orthogonalLoop=1;jettySize=auto;html=1;exitX=1;exitY=0.5;exitDx=0;exitDy=0;" edge="1" parent="1" source="f1_OQCMBHzuGKUmwr1GN-6" target="f1_OQCMBHzuGKUmwr1GN-8">
          <mxGeometry relative="1" as="geometry">
            <mxPoint x="2199.9699999999993" y="1075" as="sourcePoint" />
          </mxGeometry>
        </mxCell>
        <mxCell id="f1_OQCMBHzuGKUmwr1GN-11" value="" style="edgeStyle=orthogonalEdgeStyle;rounded=0;orthogonalLoop=1;jettySize=auto;html=1;" edge="1" parent="1" source="f1_OQCMBHzuGKUmwr1GN-12">
          <mxGeometry relative="1" as="geometry">
            <mxPoint x="1900" y="775" as="targetPoint" />
          </mxGeometry>
        </mxCell>
        <mxCell id="f1_OQCMBHzuGKUmwr1GN-12" value="数据帧是否为空" style="rounded=0;whiteSpace=wrap;html=1;" vertex="1" parent="1">
          <mxGeometry x="1969.97" y="745" width="120" height="60" as="geometry" />
        </mxCell>
        <mxCell id="f1_OQCMBHzuGKUmwr1GN-13" value="" style="edgeStyle=orthogonalEdgeStyle;rounded=0;orthogonalLoop=1;jettySize=auto;html=1;" edge="1" parent="1" source="f1_OQCMBHzuGKUmwr1GN-14" target="f1_OQCMBHzuGKUmwr1GN-14">
          <mxGeometry relative="1" as="geometry">
            <mxPoint x="2189.9700000000003" y="860" as="targetPoint" />
          </mxGeometry>
        </mxCell>
        <mxCell id="f1_OQCMBHzuGKUmwr1GN-14" value="是否轮到该优先级共享队列进行发送" style="rhombus;whiteSpace=wrap;html=1;" vertex="1" parent="1">
          <mxGeometry x="1959.97" y="825" width="140" height="70" as="geometry" />
        </mxCell>
        <mxCell id="f1_OQCMBHzuGKUmwr1GN-15" value="是" style="edgeStyle=orthogonalEdgeStyle;rounded=0;orthogonalLoop=1;jettySize=auto;html=1;exitX=0;exitY=0.5;exitDx=0;exitDy=0;entryX=0;entryY=0.5;entryDx=0;entryDy=0;" edge="1" parent="1" source="f1_OQCMBHzuGKUmwr1GN-16" target="f1_OQCMBHzuGKUmwr1GN-14">
          <mxGeometry relative="1" as="geometry">
            <mxPoint x="1930" y="860" as="targetPoint" />
            <Array as="points">
              <mxPoint x="1870" y="950" />
              <mxPoint x="1870" y="860" />
            </Array>
          </mxGeometry>
        </mxCell>
        <mxCell id="f1_OQCMBHzuGKUmwr1GN-16" value="头部数据帧合格时间是否大于当前时间" style="rhombus;whiteSpace=wrap;html=1;" vertex="1" parent="1">
          <mxGeometry x="1959.97" y="915" width="140" height="70" as="geometry" />
        </mxCell>
        <mxCell id="f1_OQCMBHzuGKUmwr1GN-17" value="" style="edgeStyle=orthogonalEdgeStyle;rounded=0;orthogonalLoop=1;jettySize=auto;html=1;" edge="1" parent="1" source="f1_OQCMBHzuGKUmwr1GN-18">
          <mxGeometry relative="1" as="geometry">
            <mxPoint x="1920" y="690" as="targetPoint" />
            <Array as="points">
              <mxPoint x="1840" y="680" />
            </Array>
          </mxGeometry>
        </mxCell>
        <mxCell id="f1_OQCMBHzuGKUmwr1GN-18" value="丢弃帧" style="rounded=0;whiteSpace=wrap;html=1;" vertex="1" parent="1">
          <mxGeometry x="1780" y="755" width="120" height="60" as="geometry" />
        </mxCell>
      </root>
    </mxGraphModel>
  </diagram>
</mxfile>
